<?xml version="1.0"?><svg width="640" height="480" xmlns="http://www.w3.org/2000/svg" xmlns:xlink="http://www.w3.org/1999/xlink">
 <!-- Created with SVG-edit - http://svg-edit.googlecode.com/ -->
 <title>fairy tale sign</title>
 <g>
  <title>Layer 1</title>
  <defs>
   <pattern id="gridpattern" patternUnits="userSpaceOnUse" x="0" y="0" width="100" height="100">
    <image id="svg_1" x="0" y="0" width="100" height="100"/>
   </pattern>
   <symbol id="svg_4">
    <g id="svg_2">
     <path d="m410.679596,194.3815c-18.304443,-4.904694 -36.82843,0.708252 -49.616486,12.902008c-6.681213,-8.030792 -15.727966,-14.228928 -26.579163,-17.136307c-27.926697,-7.482788 -56.696167,9.127151 -64.179138,37.053909c-0.549866,2.052063 -0.694641,4.115631 -0.989532,6.168045c-25.149353,-2.614288 -49.213318,13.129868 -55.96463,38.32637c-6.689621,24.965973 5.934036,50.494476 28.623032,60.990814c-1.233322,2.674438 -2.38327,5.429688 -3.171097,8.369537c-7.482864,27.926758 9.143707,56.63443 37.070465,64.117218c13.678589,3.66568 27.501953,1.513214 38.976959,-4.876282c6.324219,13.52948 18.115356,24.41864 33.659058,28.583282c22.17749,5.942566 44.682037,-3.470947 56.831757,-21.513611c4.921539,3.484131 10.392029,6.36615 16.55426,8.017609c27.926697,7.482788 56.634277,-9.144043 64.117279,-37.070801c3.762848,-14.042999 1.434509,-28.254333 -5.358032,-39.901459c6.722412,-6.410095 11.984406,-14.529816 14.562592,-24.151886c7.482971,-27.927094 -9.143646,-56.634766 -37.070343,-64.117569c-2.939789,-0.787354 -5.884552,-1.230911 -8.81662,-1.500015c1.737793,-24.524094 -14.023895,-47.662125 -38.65036,-54.260864z" id="svg_3" stroke-dashoffset="0" stroke-miterlimit="4" stroke-linejoin="round" stroke-width="14.790461" stroke="#000000" fill="#ffffff"/>
    </g>
   </symbol>
  </defs>
  <use id="svg_5" xlink:href="#svg_4" transform="matrix(2.10678 0 0 1.79976 -413.808 -290.161)" y="-11.147211" x="-5.695903"/>
  <text style="cursor: move; " fill="#000000" stroke="null" stroke-width="0" stroke-dasharray="null" stroke-linejoin="null" stroke-linecap="null" x="337" y="281" id="svg_6" font-size="111" font-family="Comic Sans MS" text-anchor="middle" xml:space="preserve" font-weight="bold">Poetry</text>
 </g>
</svg>